<?xml version="1.0" encoding="utf-8"?>
<!-- Generator: Adobe Illustrator 24.3.0, SVG Export Plug-In . SVG Version: 6.00 Build 0)  -->
<svg version="1.1" id="Layer_1" xmlns="http://www.w3.org/2000/svg" xmlns:xlink="http://www.w3.org/1999/xlink" x="0px" y="0px"
	 viewBox="0 0 200 200" style="enable-background:new 0 0 200 200;" xml:space="preserve">
<style type="text/css">
	.st0{fill-rule:evenodd;clip-rule:evenodd;}
</style>
<g>
	<path class="st0" d="M100,81.2l46.2-26.6L100,27.9L53.8,54.5L100,81.2z M100,108.8l94-54.2L100,0.3L6,54.5L100,108.8z"/>
	<polygon class="st0" points="105.8,118.8 105.8,199.7 129.7,185.9 129.7,185.9 129.7,153.7 129.7,132.6 175.8,106 175.8,149.8 
		175.8,159.3 175.8,159.3 199.8,145.5 199.8,64.6 	"/>
	<polygon class="st0" points="94.2,118.8 0.2,64.6 0.2,145.5 24.2,159.3 24.2,106 70.3,132.6 70.3,185.9 94.2,199.7 	"/>
</g>
</svg>
