<?xml version="1.0" encoding="utf-8"?>
<!-- Generator: Adobe Illustrator 24.3.0, SVG Export Plug-In . SVG Version: 6.00 Build 0)  -->
<svg version="1.1" id="Layer_1" xmlns="http://www.w3.org/2000/svg" xmlns:xlink="http://www.w3.org/1999/xlink" x="0px" y="0px"
	 viewBox="0 0 32 32" style="enable-background:new 0 0 32 32;" xml:space="preserve">
<path d="M13.9,18.1c-1.7,0-3.3,0-5,0c-2.1,0-4.2,0-6.4,0c-1.3,0-2.2-0.9-2.2-2.1c0-1.2,1-2.1,2.2-2.1c3.6,0,7.2,0,10.8,0
	c0.2,0,0.3,0,0.6,0c0-0.2,0-0.3,0-0.5c0-3.6,0-7.3,0-10.9c0-0.9,0.4-1.6,1.3-2c0.8-0.4,1.6-0.2,2.2,0.3c0.5,0.4,0.8,1,0.8,1.7
	c0,3.6,0,7.2,0,10.8c0,0.2,0,0.3,0,0.6c0.2,0,0.4,0,0.5,0c3.6,0,7.3,0,10.9,0c0.9,0,1.6,0.4,2,1.3c0.4,0.8,0.2,1.6-0.4,2.3
	c-0.4,0.5-1,0.7-1.7,0.7c-3.6,0-7.2,0-10.8,0c-0.2,0-0.3,0-0.6,0c0,0.2,0,0.4,0,0.5c0,3.6,0,7.2,0,10.9c0,1.6-1.5,2.7-3,2
	c-0.9-0.4-1.3-1.1-1.3-2.1c0-3.6,0-7.2,0-10.8C13.9,18.5,13.9,18.4,13.9,18.1z"/>
</svg>
